<svg xmlns="http://www.w3.org/2000/svg" width="69" height="69" viewBox="0 0 69 69" fill="none"><g opacity="0.7" clip-path="url(#clip0_1639_12433)"><path d="M14.6602 62.3344L18.2878 43.716L36.239 37.5347L50.6374 49.9346L47.0097 68.553" stroke="white" stroke-width="2" stroke-miterlimit="10" stroke-linecap="round" stroke-linejoin="round"></path><path d="M47.0099 68.553L32.6489 56.1531L36.314 37.5347" stroke="white" stroke-width="2" stroke-miterlimit="10" stroke-linecap="round" stroke-linejoin="round"></path><path d="M32.6488 56.1531L14.6602 62.3344" stroke="white" stroke-width="2" stroke-miterlimit="10" stroke-linecap="round" stroke-linejoin="round"></path><path d="M25.6177 6.47917L21.9526 25.0604L36.2388 37.5348L54.2648 31.4279L57.9673 12.8467L43.6437 0.372314L25.6177 6.47917Z" stroke="white" stroke-width="2" stroke-miterlimit="10" stroke-linecap="round" stroke-linejoin="round"></path><path d="M64.9986 62.4463L47.0474 68.6277L50.675 50.0464L68.6262 43.8279L64.9986 62.4463Z" stroke="white" stroke-width="2" stroke-miterlimit="10" stroke-linecap="round" stroke-linejoin="round"></path><path d="M58.0049 12.7722L54.3398 31.3534L68.626 43.8278" stroke="white" stroke-width="2" stroke-miterlimit="10" stroke-linecap="round" stroke-linejoin="round"></path><path d="M25.6179 6.47913L22.0277 25.0976L4.03906 31.2789" stroke="white" stroke-width="2" stroke-miterlimit="10" stroke-linecap="round" stroke-linejoin="round"></path><path d="M0.374023 49.8601L14.6602 62.3345L18.3626 43.7533L4.03906 31.2789L0.374023 49.8601Z" stroke="white" stroke-width="2" stroke-miterlimit="10" stroke-linecap="round" stroke-linejoin="round"></path><path d="M57.9676 12.8467L39.9416 18.9535L36.314 37.5348" stroke="white" stroke-width="2" stroke-miterlimit="10" stroke-linecap="round" stroke-linejoin="round"></path><path d="M39.9412 18.9535L25.6177 6.47913" stroke="white" stroke-width="2" stroke-miterlimit="10" stroke-linecap="round" stroke-linejoin="round"></path></g><defs><clipPath id="clip0_1639_12433"><rect width="69" height="69" fill="white"></rect></clipPath></defs></svg>